{
.appVersion = "113";
copyright = "Copyright © 2021 Shiki Suen";
customParameters = (
{
name = license;

glyphs = (
{
glyphname = E;
lastChange = "2021-06-23 09:53:32 +0000";
layers = (
{
layerId = "6FBEC54E-5AB5-4183-BDA4-8FDF1F40139A";
paths = (
{
closed = 1;
nodes = (
"720 40 LINE",
"633 40 LINE",
"633 532 LINE",
"720 532 LINE",
"720 571 LINE",
"80 571 LINE",
"80 532 LINE",
"168 532 LINE",
"168 40 LINE",
"80 40 LINE",
"80 0 LINE",
"720 0 LINE"
);
},
{
closed = 1;
nodes = (
"229 532 LINE",
"369 532 LINE",
"369 40 LINE",
"229 40 LINE"
);
},
{
closed = 1;
nodes = (
"432 532 LINE",
"572 532 LINE",
"572 40 LINE",
"432 40 LINE"
);
}
);
width = 800;
}
);
unicode = 0045;
},
{
glyphname = F;
lastChange = "2021-06-23 09:56:45 +0000";
layers = (
{
layerId = "6FBEC54E-5AB5-4183-BDA4-8FDF1F40139A";
paths = (
{
closed = 1;
nodes = (
"466 90 LINE",
"425 90 LINE",
"425 259 LINE",
"372 259 LINE",
"282 96 LINE",
"282 61 LINE",
"388 61 LINE",
"388 24 LINE",
"358 24 LINE",
"358 0 LINE",
"453 0 LINE",
"453 24 LINE",
"425 24 LINE",
"425 61 LINE",
"463 61 LINE"
);
},
{
closed = 1;
nodes = (
"388 229 LINE",
"388 90 LINE",
"314 90 LINE"
);
},
{
closed = 1;
nodes = (
"161 242 LINE",
"126 242 LINE",
"126 150 LINE",
"34 150 LINE",
"34 118 LINE",
"126 118 LINE",
"126 25 LINE",
"161 25 LINE",
"161 118 LINE",
"254 118 LINE",
"254 150 LINE",
"161 150 LINE"
);
}
);
width = 500;
}
);
unicode = 0046;
},
{
glyphname = Q;
lastChange = "2021-06-23 09:40:39 +0000";
layers = (
{
layerId = "6FBEC54E-5AB5-4183-BDA4-8FDF1F40139A";
paths = (
{
closed = 1;
nodes = (
"270 0 LINE",
"530 0 LINE",
"530 40 LINE",
"432 40 LINE",
"432 532 LINE",
"530 532 LINE",
"530 572 LINE",
"270 572 LINE",
"270 532 LINE",
"368 532 LINE",
"368 40 LINE",
"270 40 LINE"
);
}
);
width = 800;
}
);
unicode = 0051;
},
{
glyphname = R;
lastChange = "2021-06-23 09:43:57 +0000";
layers = (
{
layerId = "6FBEC54E-5AB5-4183-BDA4-8FDF1F40139A";
paths = (
{
closed = 1;
nodes = (
"150 532 LINE",
"150 40 LINE",
"63 40 LINE",
"63 0 LINE",
"298 0 LINE",
"298 40 LINE",
"211 40 LINE",
"211 532 LINE",
"276 532 LINE",
"429 0 LINE",
"509 0 LINE",
"671 532 LINE",
"737 532 LINE",
"737 571 LINE",
"544 571 LINE",
"544 532 LINE",
"612 532 LINE",
"472 50 LINE",
"339 532 LINE",
"403 532 LINE",
"403 571 LINE",
"63 571 LINE",
"63 532 LINE"
);
}
);
width = 800;
}
);
unicode = 0052;
},
{
glyphname = S;
lastChange = "2021-06-23 09:56:42 +0000";
layers = (
{
layerId = "6FBEC54E-5AB5-4183-BDA4-8FDF1F40139A";
paths = (
{
closed = 1;
nodes = (
"455 245 OFFCURVE",
"431 267 OFFCURVE",
"386 267 CURVE",
"317 267 OFFCURVE",
"288 222 OFFCURVE",
"288 117 CURVE",
"288 27 OFFCURVE",
"325 0 OFFCURVE",
"375 0 CURVE",
"432 0 OFFCURVE",
"466 33 OFFCURVE",
"466 88 CURVE",
"466 139 OFFCURVE",
"438 167 OFFCURVE",
"389 167 CURVE",
"362 167 OFFCURVE",
"337 156 OFFCURVE",
"323 141 CURVE",
"324 204 OFFCURVE",
"348 237 OFFCURVE",
"385 237 CURVE",
"406 237 OFFCURVE",
"421 228 OFFCURVE",
"425 204 CURVE",
"461 204 LINE"
);
},
{
closed = 1;
nodes = (
"334 124 OFFCURVE",
"362 135 OFFCURVE",
"385 135 CURVE",
"414 135 OFFCURVE",
"433 118 OFFCURVE",
"433 81 CURVE",
"433 49 OFFCURVE",
"409 29 OFFCURVE",
"380 29 CURVE",
"348 29 OFFCURVE",
"324 51 OFFCURVE",
"324 107 CURVE",
"324 111 LINE"
);
},
{
closed = 1;
nodes = (
"161 242 LINE",
"126 242 LINE",
"126 150 LINE",
"34 150 LINE",
"34 118 LINE",
"126 118 LINE",
"126 25 LINE",
"161 25 LINE",
"161 118 LINE",
"254 118 LINE",
"254 150 LINE",
"161 150 LINE"
);
}
);
width = 500;
}
);
unicode = 0053;
},
{
glyphname = T;
lastChange = "2021-06-25 13:01:05 +0000";
layers = (
{
layerId = "6FBEC54E-5AB5-4183-BDA4-8FDF1F40139A";
paths = (
{
closed = 1;
nodes = (
"480 532 LINE",
"578 532 LINE",
"402 50 LINE",
"225 532 LINE",
"319 532 LINE",
"319 571 LINE",
"63 571 LINE",
"63 532 LINE",
"159 532 LINE",
"359 0 LINE",
"440 0 LINE",
"639 532 LINE",
"737 532 LINE",
"737 571 LINE",
"480 571 LINE"
);
}
);
width = 800;
}
);
unicode = 0054;
},
{
glyphname = U;
lastChange = "2021-06-23 06:13:41 +0000";
layers = (
{
layerId = "6FBEC54E-5AB5-4183-BDA4-8FDF1F40139A";
paths = (
{
closed = 1;
nodes = (
"762 40 LINE",
"700 40 LINE",
"700 532 LINE",
"762 532 LINE",
"762 571 LINE",
"311 571 LINE",
"311 532 LINE",
"364 532 LINE",
"253 50 LINE",
"149 532 LINE",
"198 532 LINE",
"198 571 LINE",
"38 571 LINE",
"38 532 LINE",
"88 532 LINE",
"211 0 LINE",
"290 0 LINE",
"421 532 LINE",
"492 532 LINE",
"492 40 LINE",
"431 40 LINE",
"431 0 LINE",
"762 0 LINE"
);
},
{
closed = 1;
nodes = (
"550 532 LINE",
"643 532 LINE",
"643 40 LINE",
"550 40 LINE"
);
}
);
width = 800;
}
);
unicode = 0055;
},
{
glyphname = W;
lastChange = "2021-06-23 09:43:41 +0000";
layers = (
{
layerId = "6FBEC54E-5AB5-4183-BDA4-8FDF1F40139A";
paths = (
{
closed = 1;
nodes = (
"541 40 LINE",
"541 532 LINE",
"635 532 LINE",
"635 571 LINE",
"165 571 LINE",
"165 532 LINE",
"258 532 LINE",
"258 40 LINE",
"165 40 LINE",
"165 0 LINE",
"635 0 LINE",
"635 40 LINE"
);
},
{
closed = 1;
nodes = (
"320 532 LINE",
"479 532 LINE",
"479 40 LINE",
"320 40 LINE"
);
}
);
width = 800;
}
);
unicode = 0057;
},
{
glyphname = Y;
lastChange = "2021-06-23 06:13:43 +0000";
layers = (
{
layerId = "6FBEC54E-5AB5-4183-BDA4-8FDF1F40139A";
paths = (
{
closed = 1;
nodes = (
"650 532 LINE",
"650 40 LINE",
"737 40 LINE",
"737 0 LINE",
"502 0 LINE",
"502 40 LINE",
"589 40 LINE",
"589 532 LINE",
"524 532 LINE",
"371 0 LINE",
"291 0 LINE",
"129 532 LINE",
"63 532 LINE",
"63 571 LINE",
"256 571 LINE",
"256 532 LINE",
"188 532 LINE",
"328 50 LINE",
"461 532 LINE",
"397 532 LINE",
"397 571 LINE",
"737 571 LINE",
"737 532 LINE"
);
}
);
width = 800;
}
);
unicode = 0059;
},
{
glyphname = f;
lastChange = "2021-06-25 13:00:33 +0000";
layers = (
{
layerId = "6FBEC54E-5AB5-4183-BDA4-8FDF1F40139A";
paths = (
{
closed = 1;
nodes = (
"63 571 LINE",
"28 431 LINE",
"90 361 LINE",
"111 532 LINE"
);
}
);
width = 800;
}
);
unicode = 0066;
},
{
glyphname = m;
lastChange = "2021-06-23 07:07:43 +0000";
layers = (
{
layerId = "6FBEC54E-5AB5-4183-BDA4-8FDF1F40139A";
paths = (
{
closed = 1;
nodes = (
"181 419 OFFCURVE",
"129 370 OFFCURVE",
"129 300 CURVE",
"129 230 OFFCURVE",
"181 181 OFFCURVE",
"251 181 CURVE",
"320 181 OFFCURVE",
"371 230 OFFCURVE",
"371 300 CURVE",
"371 370 OFFCURVE",
"320 419 OFFCURVE",
"251 419 CURVE"
);
},
{
closed = 1;
nodes = (
"293 376 OFFCURVE",
"323 342 OFFCURVE",
"323 300 CURVE",
"323 257 OFFCURVE",
"293 223 OFFCURVE",
"251 223 CURVE",
"206 223 OFFCURVE",
"177 257 OFFCURVE",
"177 300 CURVE",
"177 342 OFFCURVE",
"206 376 OFFCURVE",
"251 376 CURVE"
);
}
);
width = 500;
}
);
unicode = 006D;
},
{
glyphname = p;
lastChange = "2021-06-23 06:38:39 +0000";
layers = (
{
layerId = "6FBEC54E-5AB5-4183-BDA4-8FDF1F40139A";
paths = (
{
closed = 1;
nodes = (
"132 453 LINE",
"132 398 LINE",
"648 130 LINE",
"648 184 LINE"
);
}
);
width = 800;
}
);
unicode = 0070;
},
{
glyphname = r;
lastChange = "2021-06-25 13:01:16 +0000";
layers = (
{
layerId = "6FBEC54E-5AB5-4183-BDA4-8FDF1F40139A";
paths = (
{
closed = 1;
nodes = (
"92 160 LINE",
"708 448 LINE",
"708 503 LINE",
"92 214 LINE"
);
}
);
width = 800;
}
);
unicode = 0072;
},
{
glyphname = s;
lastChange = "2021-06-23 06:17:27 +0000";
layers = (
{
layerId = "6FBEC54E-5AB5-4183-BDA4-8FDF1F40139A";
paths = (
{
closed = 1;
nodes = (
"176 693 LINE",
"264 693 LINE",
"104 532 LINE",
"63 532 LINE",
"63 571 LINE"
);
}
);
width = 800;
}
);
unicode = 0073;
},
{
glyphname = one;
lastChange = "2021-06-23 07:23:54 +0000";
layers = (
{
layerId = "6FBEC54E-5AB5-4183-BDA4-8FDF1F40139A";
paths = (
{
closed = 1;
nodes = (
"149 571 LINE",
"112 571 LINE",
"69 550 LINE",
"69 523 LINE",
"111 533 LINE",
"111 338 LINE",
"63 338 LINE",
"63 312 LINE",
"197 312 LINE",
"197 338 LINE",
"149 338 LINE"
);
}
);
width = 250;
}
);
unicode = 0031;
},
{
glyphname = two;
lastChange = "2021-06-23 07:23:50 +0000";
layers = (
{
layerId = "6FBEC54E-5AB5-4183-BDA4-8FDF1F40139A";
paths = (
{
closed = 1;
nodes = (
"183 426 OFFCURVE",
"203 455 OFFCURVE",
"203 503 CURVE",
"203 544 OFFCURVE",
"179 571 OFFCURVE",
"125 571 CURVE",
"102 571 OFFCURVE",
"57 568 OFFCURVE",
"39 529 CURVE",
"40 497 LINE",
"61 495 LINE",
"68 516 LINE",
"77 531 OFFCURVE",
"89 539 OFFCURVE",
"118 539 CURVE",
"154 539 OFFCURVE",
"161 523 OFFCURVE",
"161 499 CURVE",
"161 457 OFFCURVE",
"120 416 OFFCURVE",
"37 344 CURVE",
"37 308 LINE",
"213 308 LINE",
"213 340 LINE",
"82 340 LINE"
);
}
);
width = 250;
}
);
unicode = 0032;
},
{
glyphname = three;
lastChange = "2021-06-23 07:23:56 +0000";
layers = (
{
layerId = "6FBEC54E-5AB5-4183-BDA4-8FDF1F40139A";
paths = (
{
closed = 1;
nodes = (
"179 453 OFFCURVE",
"202 472 OFFCURVE",
"202 510 CURVE",
"202 549 OFFCURVE",
"173 571 OFFCURVE",
"125 571 CURVE",
"99 571 OFFCURVE",
"81 566 OFFCURVE",
"57 555 CURVE",
"57 516 LINE",
"74 514 LINE",
"84 532 LINE",
"95 536 OFFCURVE",
"107 538 OFFCURVE",
"119 540 CURVE",
"146 540 OFFCURVE",
"161 528 OFFCURVE",
"161 504 CURVE",
"161 472 OFFCURVE",
"137 460 OFFCURVE",
"105 460 CURVE",
"90 460 LINE",
"85 424 LINE",
"105 424 LINE",
"152 424 OFFCURVE",
"169 407 OFFCURVE",
"169 379 CURVE",
"169 351 OFFCURVE",
"156 338 OFFCURVE",
"123 338 CURVE",
"90 338 OFFCURVE",
"74 343 OFFCURVE",
"74 376 CURVE",
"38 374 LINE",
"38 328 OFFCURVE",
"67 306 OFFCURVE",
"120 306 CURVE",
"177 306 OFFCURVE",
"212 335 OFFCURVE",
"212 380 CURVE",
"212 418 OFFCURVE",
"185 440 OFFCURVE",
"153 445 CURVE",
"153 445 LINE"
);
}
);
width = 250;
}
);
unicode = 0033;
},
{
glyphname = four;
lastChange = "2021-06-23 07:23:58 +0000";
layers = (
{
layerId = "6FBEC54E-5AB5-4183-BDA4-8FDF1F40139A";
paths = (
{
closed = 1;
nodes = (
"217 404 LINE",
"176 404 LINE",
"176 571 LINE",
"123 571 LINE",
"33 408 LINE",
"33 373 LINE",
"139 373 LINE",
"139 338 LINE",
"109 338 LINE",
"109 312 LINE",
"204 312 LINE",
"204 338 LINE",
"176 338 LINE",
"176 373 LINE",
"214 373 LINE"
);
},
{
closed = 1;
nodes = (
"139 539 LINE",
"139 404 LINE",
"67 404 LINE"
);
}
);
width = 250;
}
);
unicode = 0034;
},
{
glyphname = six;
lastChange = "2021-06-23 06:53:57 +0000";
layers = (
{
layerId = "6FBEC54E-5AB5-4183-BDA4-8FDF1F40139A";
paths = (
{
closed = 1;
nodes = (
"203 551 OFFCURVE",
"179 573 OFFCURVE",
"134 573 CURVE",
"65 573 OFFCURVE",
"36 528 OFFCURVE",
"36 423 CURVE",
"36 333 OFFCURVE",
"73 306 OFFCURVE",
"123 306 CURVE",
"180 306 OFFCURVE",
"214 339 OFFCURVE",
"214 394 CURVE",
"214 445 OFFCURVE",
"186 473 OFFCURVE",
"137 473 CURVE",
"110 473 OFFCURVE",
"87 462 OFFCURVE",
"73 447 CURVE",
"74 510 OFFCURVE",
"96 541 OFFCURVE",
"133 541 CURVE",
"154 541 OFFCURVE",
"167 534 OFFCURVE",
"171 510 CURVE",
"209 510 LINE"
);
},
{
closed = 1;
nodes = (
"84 428 OFFCURVE",
"110 439 OFFCURVE",
"133 439 CURVE",
"162 439 OFFCURVE",
"179 424 OFFCURVE",
"179 387 CURVE",
"179 355 OFFCURVE",
"157 337 OFFCURVE",
"128 337 CURVE",
"96 337 OFFCURVE",
"74 355 OFFCURVE",
"74 411 CURVE",
"74 415 LINE"
);
}
);
width = 250;
}
);
unicode = 0036;
},
{
glyphname = seven;
lastChange = "2021-06-23 07:24:00 +0000";
layers = (
{
layerId = "6FBEC54E-5AB5-4183-BDA4-8FDF1F40139A";
paths = (
{
closed = 1;
nodes = (
"41 186 LINE",
"70 186 LINE",
"72 224 LINE",
"175 224 LINE",
"122 138 OFFCURVE",
"108 103 OFFCURVE",
"85 0 CURVE",
"127 0 LINE",
"141 93 OFFCURVE",
"159 144 OFFCURVE",
"209 221 CURVE",
"209 259 LINE",
"41 259 LINE"
);
}
);
width = 250;
}
);
unicode = 0037;
},
{
glyphname = nine;
lastChange = "2021-06-25 12:59:03 +0000";
layers = (
{
layerId = "6FBEC54E-5AB5-4183-BDA4-8FDF1F40139A";
paths = (
{
closed = 1;
nodes = (
"47 22 OFFCURVE",
"72 0 OFFCURVE",
"117 0 CURVE",
"186 0 OFFCURVE",
"214 45 OFFCURVE",
"214 150 CURVE",
"214 240 OFFCURVE",
"177 267 OFFCURVE",
"127 267 CURVE",
"71 267 OFFCURVE",
"36 234 OFFCURVE",
"36 178 CURVE",
"36 128 OFFCURVE",
"64 100 OFFCURVE",
"113 100 CURVE",
"140 100 OFFCURVE",
"163 109 OFFCURVE",
"178 124 CURVE",
"176 61 OFFCURVE",
"155 32 OFFCURVE",
"118 32 CURVE",
"96 32 OFFCURVE",
"84 39 OFFCURVE",
"79 63 CURVE",
"42 63 LINE"
);
},
{
closed = 1;
nodes = (
"166 145 OFFCURVE",
"140 134 OFFCURVE",
"118 134 CURVE",
"88 134 OFFCURVE",
"72 149 OFFCURVE",
"72 185 CURVE",
"72 218 OFFCURVE",
"94 234 OFFCURVE",
"123 234 CURVE",
"155 234 OFFCURVE",
"176 218 OFFCURVE",
"176 161 CURVE",
"176 158 LINE"
);
}
);
width = 249;
}
);
unicode = 0039;
},
{
glyphname = slash;
lastChange = "2021-06-23 05:31:12 +0000";
layers = (
{
layerId = "6FBEC54E-5AB5-4183-BDA4-8FDF1F40139A";
paths = (
{
closed = 1;
nodes = (
"93 -168 LINE",
"161 -168 LINE",
"392 700 LINE",
"324 700 LINE"
);
}
);
width = 500;
}
);
unicode = 002F;
},
{
glyphname = parenleft;
lastChange = "2021-06-23 09:46:38 +0000";
layers = (
{
layerId = "6FBEC54E-5AB5-4183-BDA4-8FDF1F40139A";
paths = (
{
closed = 1;
nodes = (
"54 510 OFFCURVE",
"54 21 OFFCURVE",
"254 -169 CURVE",
"336 -169 LINE",
"136 21 OFFCURVE",
"136 510 OFFCURVE",
"336 700 CURVE",
"254 700 LINE"
);
}
);
width = 400;
}
);
unicode = 0028;
},
{
glyphname = parenright;
lastChange = "2021-06-23 09:46:46 +0000";
layers = (
{
layerId = "6FBEC54E-5AB5-4183-BDA4-8FDF1F40139A";
paths = (
{
closed = 1;
nodes = (
"346 510 OFFCURVE",
"346 21 OFFCURVE",
"146 -169 CURVE",
"64 -169 LINE",
"264 21 OFFCURVE",
"264 510 OFFCURVE",
"64 700 CURVE",
"146 700 LINE"
);
}
);
width = 400;
}
);
unicode = 0029;
},
{
glyphname = braceleft;
lastChange = "2021-06-23 09:46:06 +0000";
layers = (
{
layerId = "6FBEC54E-5AB5-4183-BDA4-8FDF1F40139A";
paths = (
{
closed = 1;
nodes = (
"174 700 OFFCURVE",
"135 633 OFFCURVE",
"134 600 CURVE",
"134 385 OFFCURVE",
"142 325 OFFCURVE",
"74 325 CURVE",
"74 245 LINE",
"144 245 OFFCURVE",
"134 185 OFFCURVE",
"134 -69 CURVE",
"135 -102 OFFCURVE",
"144 -169 OFFCURVE",
"304 -169 CURVE",
"336 -119 LINE",
"299 -119 OFFCURVE",
"206 -119 OFFCURVE",
"206 -69 CURVE",
"206 245 OFFCURVE",
"206 284 OFFCURVE",
"106 284 CURVE",
"106 286 LINE",
"206 286 OFFCURVE",
"206 325 OFFCURVE",
"206 600 CURVE",
"206 650 OFFCURVE",
"293 650 OFFCURVE",
"336 650 CURVE",
"304 700 LINE"
);
}
);
width = 400;
}
);
unicode = 007B;
},
{
glyphname = braceright;
lastChange = "2021-06-23 09:46:11 +0000";
layers = (
{
layerId = "6FBEC54E-5AB5-4183-BDA4-8FDF1F40139A";
paths = (
{
closed = 1;
nodes = (
"226 700 OFFCURVE",
"265 633 OFFCURVE",
"266 600 CURVE",
"266 385 OFFCURVE",
"258 325 OFFCURVE",
"356 325 CURVE",
"356 245 LINE",
"256 245 OFFCURVE",
"266 185 OFFCURVE",
"266 -69 CURVE",
"265 -102 OFFCURVE",
"226 -169 OFFCURVE",
"96 -169 CURVE",
"64 -119 LINE",
"101 -119 OFFCURVE",
"194 -119 OFFCURVE",
"194 -69 CURVE",
"194 245 OFFCURVE",
"194 284 OFFCURVE",
"294 284 CURVE",
"294 286 LINE",
"194 286 OFFCURVE",
"194 325 OFFCURVE",
"194 600 CURVE",
"194 650 OFFCURVE",
"107 650 OFFCURVE",
"64 650 CURVE",
"96 700 LINE"
);
}
);
width = 400;
}
);
unicode = 007D;
},
{
glyphname = bracketleft;
lastChange = "2021-06-23 09:31:52 +0000";
layers = (
{
layerId = "6FBEC54E-5AB5-4183-BDA4-8FDF1F40139A";
paths = (
{
closed = 1;
nodes = (
"104 600 LINE",
"104 -69 LINE",
"254 -169 LINE",
"336 -139 LINE",
"172 -35 LINE",
"172 566 LINE",
"336 670 LINE",
"254 700 LINE"
);
}
);
width = 400;
}
);
unicode = 005B;
},
{
glyphname = bracketright;
lastChange = "2021-06-23 09:41:53 +0000";
layers = (
{
layerId = "6FBEC54E-5AB5-4183-BDA4-8FDF1F40139A";
paths = (
{
closed = 1;
nodes = (
"296 600 LINE",
"296 -69 LINE",
"146 -169 LINE",
"64 -139 LINE",
"228 -35 LINE",
"228 566 LINE",
"64 670 LINE",
"146 700 LINE"
);
}
);
width = 400;
}
);
unicode = 005D;
},
{
glyphname = at;
lastChange = "2021-06-23 09:49:41 +0000";
layers = (
{
layerId = "6FBEC54E-5AB5-4183-BDA4-8FDF1F40139A";
paths = (
{
closed = 1;
nodes = (
"304 0 OFFCURVE",
"412 1 OFFCURVE",
"444 4 CURVE",
"444 90 LINE",
"415 57 OFFCURVE",
"307 57 OFFCURVE",
"250 60 CURVE",
"232 60 OFFCURVE",
"214 63 OFFCURVE",
"197 68 CURVE",
"179 74 OFFCURVE",
"165 82 OFFCURVE",
"154 93 CURVE",
"142 104 OFFCURVE",
"133 116 OFFCURVE",
"131 129 CURVE",
"126 143 OFFCURVE",
"123 156 OFFCURVE",
"123 171 CURVE",
"123 413 LINE",
"123 426 OFFCURVE",
"126 436 OFFCURVE",
"131 449 CURVE",
"133 462 OFFCURVE",
"142 474 OFFCURVE",
"154 484 CURVE",
"165 495 OFFCURVE",
"179 504 OFFCURVE",
"197 508 CURVE",
"214 514 OFFCURVE",
"232 517 OFFCURVE",
"250 517 CURVE",
"269 517 OFFCURVE",
"289 519 OFFCURVE",
"304 513 CURVE",
"323 507 OFFCURVE",
"337 500 OFFCURVE",
"348 489 CURVE",
"359 477 OFFCURVE",
"367 465 OFFCURVE",
"372 452 CURVE",
"376 439 OFFCURVE",
"377 396 OFFCURVE",
"377 383 CURVE",
"377 381 LINE",
"377 396 OFFCURVE",
"359 411 OFFCURVE",
"339 411 CURVE",
"320 411 OFFCURVE",
"301 408 OFFCURVE",
"281 402 CURVE",
"262 396 OFFCURVE",
"247 388 OFFCURVE",
"234 377 CURVE",
"222 367 OFFCURVE",
"214 352 OFFCURVE",
"210 339 CURVE",
"205 325 OFFCURVE",
"202 309 OFFCURVE",
"202 296 CURVE",
"202 256 LINE",
"202 241 OFFCURVE",
"205 227 OFFCURVE",
"210 212 CURVE",
"214 197 OFFCURVE",
"222 184 OFFCURVE",
"234 173 CURVE",
"247 162 OFFCURVE",
"262 152 OFFCURVE",
"281 147 CURVE",
"299 141 OFFCURVE",
"315 138 OFFCURVE",
"335 138 CURVE",
"347 138 OFFCURVE",
"358 140 OFFCURVE",
"370 143 CURVE",
"382 144 OFFCURVE",
"391 147 OFFCURVE",
"402 153 CURVE",
"412 158 OFFCURVE",
"417 166 OFFCURVE",
"425 174 CURVE",
"433 181 OFFCURVE",
"435 190 OFFCURVE",
"439 200 CURVE",
"444 208 OFFCURVE",
"446 218 OFFCURVE",
"448 228 CURVE",
"449 236 OFFCURVE",
"451 246 OFFCURVE",
"451 256 CURVE",
"451 413 LINE",
"451 427 OFFCURVE",
"448 442 OFFCURVE",
"446 456 CURVE",
"443 470 OFFCURVE",
"440 484 OFFCURVE",
"433 498 CURVE",
"424 511 OFFCURVE",
"416 523 OFFCURVE",
"403 533 CURVE",
"390 544 OFFCURVE",
"377 554 OFFCURVE",
"360 561 CURVE",
"343 568 OFFCURVE",
"326 573 OFFCURVE",
"306 576 CURVE",
"288 579 OFFCURVE",
"269 581 OFFCURVE",
"250 581 CURVE",
"232 581 OFFCURVE",
"214 579 OFFCURVE",
"194 576 CURVE",
"174 573 OFFCURVE",
"158 568 OFFCURVE",
"141 561 CURVE",
"123 554 OFFCURVE",
"111 544 OFFCURVE",
"98 533 CURVE",
"85 523 OFFCURVE",
"78 511 OFFCURVE",
"69 498 CURVE",
"60 484 OFFCURVE",
"58 470 OFFCURVE",
"54 456 CURVE",
"53 442 OFFCURVE",
"49 427 OFFCURVE",
"49 413 CURVE",
"49 171 LINE",
"49 156 OFFCURVE",
"53 140 OFFCURVE",
"54 125 CURVE",
"58 112 OFFCURVE",
"60 97 OFFCURVE",
"69 84 CURVE",
"78 71 OFFCURVE",
"85 57 OFFCURVE",
"98 46 CURVE",
"113 35 OFFCURVE",
"124 27 OFFCURVE",
"142 18 CURVE",
"159 11 OFFCURVE",
"175 6 OFFCURVE",
"194 4 CURVE",
"214 1 OFFCURVE",
"232 0 OFFCURVE",
"250 0 CURVE"
);
},
{
closed = 1;
nodes = (
"301 197 OFFCURVE",
"278 222 OFFCURVE",
"278 256 CURVE",
"278 296 LINE",
"278 302 OFFCURVE",
"278 308 OFFCURVE",
"278 314 CURVE",
"280 320 OFFCURVE",
"282 326 OFFCURVE",
"288 332 CURVE",
"290 338 OFFCURVE",
"299 341 OFFCURVE",
"306 346 CURVE",
"313 350 OFFCURVE",
"325 352 OFFCURVE",
"333 352 CURVE",
"358 352 OFFCURVE",
"377 343 OFFCURVE",
"377 322 CURVE",
"377 256 LINE",
"377 223 OFFCURVE",
"360 197 OFFCURVE",
"332 197 CURVE"
);
}
);
width = 500;
}
);
unicode = 0040;
},
{
glyphname = plus;
lastChange = "2021-06-23 06:26:55 +0000";
layers = (
{
layerId = "6FBEC54E-5AB5-4183-BDA4-8FDF1F40139A";
paths = (
{
closed = 1;
nodes = (
"273 454 LINE",
"226 454 LINE",
"226 323 LINE",
"94 323 LINE",
"94 278 LINE",
"226 278 LINE",
"226 146 LINE",
"273 146 LINE",
"273 278 LINE",
"406 278 LINE",
"406 323 LINE",
"273 323 LINE"
);
}
